<?xml version="1.0" encoding="UTF-8"?>
<svg id="Layer_1" data-name="Layer 1" xmlns="http://www.w3.org/2000/svg" viewBox="0 0 1397.35 1100.61">
  <defs>
    <style>
      .cls-1 {
        fill: #fff;
      }
    </style>
  </defs>
  <path class="cls-1" d="M467.16,830.03l231.34,136.83,245.89-126.12c4-3.06,2.88-12.9.19-17.05l-242.78-4.25c-15.17-.27-19.09-22.07-16.7-32.34,2.53-10.85,7.86-16.45,18.85-16.44l264.16.26c11.45.01,26.12-3.24,26.43,13.23l1.28,67.73c.14,7.42-2.46,13.94-9.32,17.63l-286.07,153.86c-7.17,3.86-15.04,2.11-21.93-2.04l-258.54-155.85c-8.13-4.9-11.62-11.47-11.68-21.69l-2.89-492.49-.72-174.7c-.04-9.67,2.42-17.52,11.43-22.56L683.49,4.47c8.34-4.66,15.77-6.47,24.24-1.54l263.58,153.38c6.84,3.98,12.54,12.62,15.66,19.92l3.62,535.03c.14,20.73-7.2,35.75-23.53,47.15-6.76,4.73-13.6,7.06-21.98,1.39l-217.13-146.99-.05,93.53c0,11.15-12.59,15.34-21.82,16.41-12.59,1.46-23.41-5.76-23.68-18.94l-2.65-129.75c-.18-8.92,2-15.42,8.05-19.78,6.32-4.56,13.45-6.45,21.62-2.63l226.92,136.13-1.39-279.42-222.46,127.53c-6.24,3.53-11.75,3.98-18.41,1.14l-231.64-127.95,4.71,420.93ZM614.28,433.69l89.59,50.94,231.17-145.65-.87-140.32-234.91-139.97-239.27,139.99,1.25,146.71,131.19,75.59c7.7,3.29,15.06,6.06,21.86,12.71Z"/>
  <path class="cls-1" d="M666.15,1045.67c11.75,6.82,8.48,23.15,4.9,32.02-3.14,7.78-15.73,20.73-27.26,16.68L18.37,733.07c-9.76-5.64-16.87-16.8-17.83-24.37-1.13-8.93-1.28-24.58,7.87-29.74l317.16-178.82-215.62-127.3c-9.51-5.61-9.16-20.72-4.04-28.2,5.52-8.07,16.69-16.17,27.81-9.84l257.47,146.48c10.85,13.26,11.45,30.72,1.99,44.88l-315.33,178.22,588.3,341.29Z"/>
  <path class="cls-1" d="M754.42,1098.86c-11.68,6.75-23.66-7.8-27.41-14.72-4.32-7.99-7.56-26.51,3.3-32.82l589.09-341.82-315.22-178.25c-9.53-14.18-8.84-31.57,1.95-44.92l259.16-147.21c10.45-5.94,23.07,4.89,26.82,11.79,5.51,10.13,2.94,22.93-7.44,29.04l-212.94,125.26,317.18,178.81c9.14,5.15,9.04,20.85,7.89,29.77-.97,7.54-8.06,18.73-17.85,24.38l-624.54,360.68Z"/>
  <path class="cls-1" d="M709.62,416.49c16.77-22.42,7.23-83.49-18.04-95.01-22.38,14.9-30.52,67.34-14.52,87.76,4.31,5.5,7,10.3,5.25,17.77-1.19,5.09-7.13,9.67-14.77,11.36-15.2,3.36-29.98-2.62-44.8-8.1-55.6-20.59-85.3-77.91-75.47-136.32,5.17-30.71,17.19-57.5,31.9-84.58s-18.79-26.5-10-46.84c9.56-22.11,54.92.14,72.52,15.35,7.2-22.22,30.45-81.32,57.53-79.02,12.36,1.05,42.72,56.86,46.59,75.32,17.79-14.16,64.27-38.14,72.62-12.59,2.91,8.89-2.87,14.52-10.09,20.36-10.16,8.23-6.95,24.09,1.29,33.98,40.95,49.18,60.87,118.02,18.36,171.92-24.26,30.76-66.13,49.31-104.16,55.16-7.57,1.16-12.96-3.24-15.97-8.88s-2.72-11.67,1.75-17.64ZM733.87,319.41c13.85,23.92,19.44,50.32,17.53,79.39,12.54-.26,19.73-7.51,28.77-13.07,31.23-19.2,44.46-56.51,33.96-91.7-15.53-52.06-35.58-48.23-45.1-93.94-16.28,8.9-13.02,43.89-35.3,40.67-7.62-1.1-14.65-7.53-14.88-16.73-.74-29.75-7.08-59.16-24.67-84.69-15.75,23.51-21.65,49.86-23.63,76.45-.6,8.06-6.55,13.68-12.3,15.28-20.33,5.66-20.69-20.45-43.55-32.28-7.73,42.97-23.22,47.24-33.33,98.19-8.72,43.98,12.71,87.86,56.55,101.95-4.81-42.43,2.79-92.28,43.96-110.39,15.17-11.31,45.58,19.78,51.99,30.86Z"/>
</svg>